<svg width="16" height="16" viewBox="0 0 16 16" fill="none" xmlns="http://www.w3.org/2000/svg">
<rect width="16" height="16" fill="#F5F5F5"/>
<g clip-path="url(#clip0_0_1)">
<rect width="16" height="16" fill="white"/>
<rect width="16" height="16" fill="#D9D9D9"/>
<path d="M8 0L14.9282 12H1.0718L8 0Z" fill="#D9D9D9"/>
</g>
<path d="M0.292892 7.29289C-0.097632 7.68342 -0.097632 8.31658 0.292892 8.70711L6.65685 15.0711C7.04738 15.4616 7.68054 15.4616 8.07107 15.0711C8.46159 14.6805 8.46159 14.0474 8.07107 13.6569L2.41421 8L8.07107 2.34315C8.46159 1.95262 8.46159 1.31946 8.07107 0.928932C7.68054 0.538408 7.04738 0.538408 6.65685 0.928932L0.292892 7.29289ZM16 8V7L0.999999 7V8V9L16 9V8Z" fill="black"/>
<defs>
<clipPath id="clip0_0_1">
<rect width="16" height="16" fill="white"/>
</clipPath>
</defs>
</svg>
